<svg xmlns="http://www.w3.org/2000/svg" viewBox="0 0 99.144 126.444"><g transform="matrix(.26458 0 0 .26458 -.159 -.503)"><path d="M375.3 331.7c.2-2.4-1.5-4.5-3.9-4.9-9.2-1.3-19-4.5-59.3-6.4-52.6-2.5 21.4-90.6-145.9-87-3.9.1-7.7.3-11.4.6v-.7c0-27.9-23.6-50.3-51.9-48.4-23.7 1.6-42.9 20.6-44.9 44.2-1.3 16 5.1 30.7 15.9 40.5C-.5 337.9.6 479.8.6 479.8h259.1s-20.7-66.4 46.9-69.9c27.6-1.5 37.8-2 41.5-2.3.6.1 1.2 0 1.8-.3 2.2-1.3 5.2-3.1 7.4-4.7.7-.4 1.3-1 1.9-1.6l.8-.8c10.9-13.3 14.5-57.7 15.3-68.5z" class="st0" fill="#1a1a1a"/><circle r="17.6" cy="303.5" cx="227.9" class="st2" fill="#fff"/></g><path d="M62.177 44.291l-.053-.159c-.105-.238-.211-.502-.344-.74l-.873-1.985c-2.566-5.741-2.593-9.895-2.46-12.435 0-.476.08-.953.053-1.402.026-.291 0-.556 0-.9-.133-2.752-.556-5.106-2.117-7.99a15.393 15.393 0 0 0-9.155-7.462 15.28 15.28 0 0 0-11.747 1.191 15.393 15.393 0 0 0-7.461 9.155 15.28 15.28 0 0 0 1.19 11.747c1.35 2.514 3.466 4.657 6.35 6.509l-.026.026s.106.053.29.133c.556.343 1.112.687 1.72 1.005 2.144 1.376 5.583 4.075 8.388 8.44l.979 1.535c2.17 4.1 7.25 5.688 11.298 3.519 3.81-1.905 5.397-6.324 3.968-10.187zm-22.94-10.16c-1.904-1.217-3.227-2.54-4.02-4.021-1.086-2.038-1.35-4.366-.662-6.589a8.517 8.517 0 0 1 4.18-5.132c2.038-1.085 4.366-1.35 6.588-.662a8.517 8.517 0 0 1 5.133 4.18c1.006 1.853 1.27 3.202 1.323 5.53v.106c-.185 2.434-.529 7.17 1.8 13.706L49.9 43.233c-4.128-5.292-8.732-8.096-10.663-9.102zm19.29-7.461" class="st1" fill="#00d5a6"/><circle r="10.7" cy="103" cx="72.1" class="st1" fill="#00d5a6" transform="matrix(.26458 0 0 .26458 -.159 -.503)"/><circle r="10.7" cy="103" cx="254.8" class="st1" fill="#00d5a6" transform="matrix(.26458 0 0 .26458 -.159 -.503)"/><circle r="10.7" cy="38.1" cx="99.6" class="st1" fill="#00d5a6" transform="matrix(.26458 0 0 .26458 -.159 -.503)"/><circle r="10.7" cy="38.1" cx="227.3" class="st1" fill="#00d5a6" transform="matrix(.26458 0 0 .26458 -.159 -.503)"/><circle r="10.7" cy="12.6" cx="162.5" class="st1" fill="#00d5a6" transform="matrix(.26458 0 0 .26458 -.159 -.503)"/></svg>