<?xml version="1.0" encoding="UTF-8" standalone="no"?>
<svg
   xmlns:dc="http://purl.org/dc/elements/1.1/"
   xmlns:cc="http://creativecommons.org/ns#"
   xmlns:rdf="http://www.w3.org/1999/02/22-rdf-syntax-ns#"
   xmlns:svg="http://www.w3.org/2000/svg"
   xmlns="http://www.w3.org/2000/svg"
   xmlns:sodipodi="http://sodipodi.sourceforge.net/DTD/sodipodi-0.dtd"
   xmlns:inkscape="http://www.inkscape.org/namespaces/inkscape"
   width="256"
   height="256"
   version="1.1"
   id="svg18"
   sodipodi:docname="favicon.svg"
   inkscape:export-filename="/Users/skeppstedt/Downloads/favicon.png"
   inkscape:export-xdpi="96"
   inkscape:export-ydpi="96"
   inkscape:version="0.92.2 (5c3e80d, 2017-08-06)">
  <metadata
     id="metadata24">
    <rdf:RDF>
      <cc:Work
         rdf:about="">
        <dc:format>image/svg+xml</dc:format>
        <dc:type
           rdf:resource="http://purl.org/dc/dcmitype/StillImage" />
        <dc:title></dc:title>
      </cc:Work>
    </rdf:RDF>
  </metadata>
  <defs
     id="defs22" />
  <sodipodi:namedview
     pagecolor="#ffffff"
     bordercolor="#666666"
     borderopacity="1"
     objecttolerance="10"
     gridtolerance="10"
     guidetolerance="10"
     inkscape:pageopacity="0"
     inkscape:pageshadow="2"
     inkscape:window-width="1680"
     inkscape:window-height="1005"
     id="namedview20"
     showgrid="false"
     inkscape:zoom="0.84548565"
     inkscape:cx="407.84892"
     inkscape:cy="-57.353988"
     inkscape:window-x="0"
     inkscape:window-y="23"
     inkscape:window-maximized="0"
     inkscape:current-layer="svg18" />
  <g
     transform="translate(-.409 -98.877) scale(.68272)"
     id="g16">
    <path
       class="st0"
       d="M375.3 331.7c.2-2.4-1.5-4.5-3.9-4.9-9.2-1.3-19-4.5-59.3-6.4-52.6-2.5 21.4-90.6-145.9-87-3.9.1-7.7.3-11.4.6v-.7c0-27.9-23.6-50.3-51.9-48.4-23.7 1.6-42.9 20.6-44.9 44.2-1.3 16 5.1 30.7 15.9 40.5C-.5 337.9.6 479.8.6 479.8h259.1s-20.7-66.4 46.9-69.9c27.6-1.5 37.8-2 41.5-2.3.6.1 1.2 0 1.8-.3 2.2-1.3 5.2-3.1 7.4-4.7.7-.4 1.3-1 1.9-1.6l.8-.8c10.9-13.3 14.5-57.7 15.3-68.5z"
       id="path12"
       fill="#1a1a1a" />
    <circle
       class="st2"
       cx="227.9"
       cy="303.5"
       r="17.6"
       id="circle14"
       fill="#fff" />
  </g>
</svg>
